<?xml version="1.0" encoding="iso-8859-1"?>
<!-- Generator: Adobe Illustrator 19.0.0, SVG Export Plug-In . SVG Version: 6.00 Build 0)  -->
<svg version="1.1" id="Layer_1" xmlns="http://www.w3.org/2000/svg" xmlns:xlink="http://www.w3.org/1999/xlink" x="0px" y="0px"
	 viewBox="0 0 511.997 511.997" style="enable-background:new 0 0 511.997 511.997;" xml:space="preserve">
<g>
	<polygon style="fill:#285680;" points="255.998,509.595 476.687,288.906 364.33,176.548 255.998,284.88 	"/>
	<polygon style="fill:#18384C;" points="334.689,206.191 447.046,318.549 476.689,288.906 364.332,176.548 	"/>
	<polygon style="fill:#4482C3;" points="255.998,511.997 97.101,511.997 35.308,158.894 97.101,52.963 255.998,52.963 	"/>
	<polygon style="fill:#285680;" points="220.687,167.721 176.55,203.032 132.412,167.721 132.412,97.101 220.687,97.101 	"/>
	<path style="fill:#4482C3;" d="M185.377,141.239c0,4.873-3.955,8.828-8.828,8.828c-4.873,0-8.828-3.955-8.828-8.828
		c0-4.873,3.955-8.828,8.828-8.828C181.422,132.411,185.377,136.366,185.377,141.239"/>
	<polygon style="fill:#285680;" points="97.101,52.966 255.998,52.966 255.998,0 97.101,0 	"/>
	<g>
		<polygon style="fill:#18384C;" points="141.239,52.966 158.894,52.966 158.894,0 141.239,0 		"/>
		<polygon style="fill:#18384C;" points="194.205,52.966 211.86,52.966 211.86,0 194.205,0 		"/>
	</g>
</g>
<g>
</g>
<g>
</g>
<g>
</g>
<g>
</g>
<g>
</g>
<g>
</g>
<g>
</g>
<g>
</g>
<g>
</g>
<g>
</g>
<g>
</g>
<g>
</g>
<g>
</g>
<g>
</g>
<g>
</g>
</svg>
