<?xml version="1.0" encoding="iso-8859-1"?>
<!-- Generator: Adobe Illustrator 19.0.0, SVG Export Plug-In . SVG Version: 6.00 Build 0)  -->
<svg version="1.1" id="Layer_1" xmlns="http://www.w3.org/2000/svg" xmlns:xlink="http://www.w3.org/1999/xlink" x="0px" y="0px"
	 viewBox="0 0 512 512" style="enable-background:new 0 0 512 512;" xml:space="preserve">
<g>
	<path style="fill:#CDCDCD;" d="M445.793,441.379c0,39-31.62,70.621-70.621,70.621s-70.621-31.62-70.621-70.621
		s31.62-70.621,70.621-70.621S445.793,402.379,445.793,441.379"/>
	<g>
		<path style="fill:#E6E6E6;" d="M375.172,476.69c-19.474,0-35.31-15.837-35.31-35.31s15.837-35.31,35.31-35.31
			s35.31,15.837,35.31,35.31S394.646,476.69,375.172,476.69"/>
		<path style="fill:#E6E6E6;" d="M207.448,441.379c0,39-31.62,70.621-70.621,70.621s-70.621-31.62-70.621-70.621
			s31.62-70.621,70.621-70.621S207.448,402.379,207.448,441.379"/>
	</g>
	<path style="fill:#CDCDCD;" d="M136.828,476.69c-19.474,0-35.31-15.837-35.31-35.31s15.837-35.31,35.31-35.31
		s35.31,15.837,35.31,35.31S156.301,476.69,136.828,476.69"/>
	<path style="fill:#E6E6E6;" d="M371.686,370.935L110.345,0c0,0-11.608,18.379-15.996,76.306
		c-2.189,28.831,7.115,57.406,26.05,79.245l205.842,234.973C338.158,379.065,354.066,371.8,371.686,370.935"/>
	<g>
		<path style="fill:#CDCDCD;" d="M418.997,76.308c-4.387-57.927-15.996-76.306-15.996-76.306L256.313,207.177l40.483,57.459
			l96.15-109.082C411.882,133.705,421.186,105.139,418.997,76.308"/>
		<path style="fill:#CDCDCD;" d="M215.779,264.432l-75.405,106.505c17.62,0.874,33.527,8.157,45.427,19.633l70.453-79.934
			L215.779,264.432z"/>
	</g>
</g>
<g>
</g>
<g>
</g>
<g>
</g>
<g>
</g>
<g>
</g>
<g>
</g>
<g>
</g>
<g>
</g>
<g>
</g>
<g>
</g>
<g>
</g>
<g>
</g>
<g>
</g>
<g>
</g>
<g>
</g>
</svg>
