<?xml version="1.0" encoding="iso-8859-1"?>
<!-- Generator: Adobe Illustrator 19.0.0, SVG Export Plug-In . SVG Version: 6.00 Build 0)  -->
<svg version="1.1" id="Layer_1" xmlns="http://www.w3.org/2000/svg" xmlns:xlink="http://www.w3.org/1999/xlink" x="0px" y="0px"
	 viewBox="0 0 503.756 503.756" style="enable-background:new 0 0 503.756 503.756;" xml:space="preserve">
<g>
	<path style="fill:#EF705D;" d="M267.715,357.098c-13.885,0-28.637-5.207-39.919-16.488l-27.769-28.637
		c-3.471-3.471-3.471-8.678,0-12.149c3.471-3.471,8.678-3.471,12.149,0l28.637,28.637c16.488,16.488,43.39,13.017,59.01,0
		c7.81-7.81,11.281-18.224,11.281-28.637c0-11.281-4.339-21.695-12.149-29.505l-20.827-21.695c-3.471-3.471-3.471-8.678,0-12.149
		s8.678-3.471,12.149,0l20.827,20.827c11.281,11.281,17.356,26.034,17.356,41.654s-6.075,30.373-17.356,41.654
		C299.824,350.156,284.203,357.098,267.715,357.098"/>
	<path style="fill:#EF705D;" d="M136.678,469.044c-2.603,0-4.339-0.868-6.075-2.603L16.922,353.627
		c-22.563-22.563-22.563-59.878,0-83.308c22.563-22.563,59.878-22.563,83.308,0l35.58,35.58c3.471,3.471,3.471,8.678,0,12.149
		c-3.471,3.471-8.678,3.471-12.149,0l-35.58-35.58c-16.488-16.488-42.522-16.488-59.01,0s-16.488,42.522,0,59.01l113.681,113.681
		c3.471,3.471,3.471,8.678,0,12.149C141.017,468.176,138.414,469.044,136.678,469.044"/>
	<path style="fill:#EF705D;" d="M442.142,173.993c-17.356,0-34.712-8.678-51.2-25.166c-3.471-3.471-3.471-8.678,0-12.149
		c3.471-3.471,8.678-3.471,12.149,0c27.769,27.77,53.803,26.034,85.912-4.339c3.471-3.471,8.678-3.471,12.149,0
		c3.471,3.471,3.471,8.678,0,12.149C481.193,164.447,461.234,173.993,442.142,173.993"/>
</g>
<path style="fill:#E6E6E6;" d="M411.77,57.708c-19.092-19.092-51.2-19.092-71.159,0L0.434,469.044L411.77,128.868
	C430.861,109.776,430.861,77.668,411.77,57.708"/>
<path style="fill:#CDCDCD;" d="M347.553,130.603c-2.603,0-4.339-0.868-6.075-2.603c-3.471-3.471-3.471-8.678,0-12.149l28.637-28.637
	c3.471-3.471,8.678-3.471,12.149,0s3.471,8.678,0,12.149L353.627,128C351.892,129.736,350.156,130.603,347.553,130.603"/>
<path style="fill:#EF705D;" d="M262.508,158.373c-2.603,0-4.339-0.868-6.075-2.603l-21.695-20.827
	c-22.563-22.563-22.563-59.878,0-83.308c22.563-22.563,59.878-22.563,83.308,0l49.464,49.464c3.471,3.471,3.471,8.678,0,12.149
	c-3.471,3.471-8.678,3.471-12.149,0l-49.464-49.464c-16.488-16.488-42.522-16.488-59.01,0s-16.488,42.522,0,59.01l20.827,20.827
	c3.471,3.471,3.471,8.678,0,12.149C266.847,158.373,265.112,158.373,262.508,158.373"/>
<g>
</g>
<g>
</g>
<g>
</g>
<g>
</g>
<g>
</g>
<g>
</g>
<g>
</g>
<g>
</g>
<g>
</g>
<g>
</g>
<g>
</g>
<g>
</g>
<g>
</g>
<g>
</g>
<g>
</g>
</svg>
