<?xml version="1.0" encoding="iso-8859-1"?>
<!-- Generator: Adobe Illustrator 19.0.0, SVG Export Plug-In . SVG Version: 6.00 Build 0)  -->
<svg version="1.1" id="Layer_1" xmlns="http://www.w3.org/2000/svg" xmlns:xlink="http://www.w3.org/1999/xlink" x="0px" y="0px"
	 viewBox="0 0 512.059 512.059" style="enable-background:new 0 0 512.059 512.059;" xml:space="preserve">
<g>
	<path style="fill:#E6E7E8;" d="M391.8,95.874c-2.436-4.175-5.57-7.892-9.269-10.999c-7.601-6.382-17.196-9.878-27.118-9.878
		h-37.605l-61.793,70.621l-61.793-70.621h-37.614c-9.913,0-19.518,3.496-27.11,9.878c-3.699,3.107-6.833,6.824-9.269,10.999
		L1.621,298.979c-3.319,5.685-1.377,12.994,4.326,16.287l25.3,14.61c5.658,3.266,12.888,1.359,16.199-4.273l76.156-129.668
		l-0.018,223.338l60.849,28.398c45.365,21.169,97.774,21.169,143.131,0l60.849-28.398l0.018-223.338l76.703,129.174
		c3.319,5.597,10.522,7.477,16.163,4.22l24.143-13.939c6.365-3.672,8.519-11.829,4.793-18.167L391.8,95.874z"/>
	<path style="fill:#95A5A5;" d="M194.22,74.994c0-14.627,27.666-26.483,61.793-26.483s61.793,11.855,61.793,26.483l-61.793,70.621
		L194.22,74.994z"/>
	<g>
		<polygon style="fill:#BDC3C7;" points="308.978,154.442 280.968,117.093 317.806,74.994 353.116,74.994 		"/>
		<polygon style="fill:#BDC3C7;" points="203.047,154.442 231.057,117.093 194.22,74.994 158.909,74.994 		"/>
	</g>
	<polygon style="fill:#4482C3;" points="256.013,145.615 237.846,124.852 229.512,366.304 255.995,401.615 282.478,366.304 
		274.153,124.879 	"/>
	<polygon style="fill:#285680;" points="233.363,254.78 278.419,248.345 277.201,213.211 234.59,219.293 	"/>
	<g>
		<path style="fill:#BDC3C7;" d="M465.128,324.628c3.319,5.597,10.531,7.477,16.163,4.228l24.152-13.948
			c6.365-3.672,8.51-11.829,4.785-18.167l-15.625-26.571l-44.862,28.54L465.128,324.628z"/>
		<path style="fill:#BDC3C7;" d="M17.764,270.861L1.627,298.5c-3.328,5.694-1.386,12.994,4.317,16.287l25.309,14.61
			c5.65,3.266,12.888,1.359,16.19-4.273l17.276-29.405L17.764,270.861z"/>
	</g>
	<polygon style="fill:#285680;" points="231.709,302.703 230.482,338.189 281.259,330.933 280.049,295.799 	"/>
</g>
<g>
</g>
<g>
</g>
<g>
</g>
<g>
</g>
<g>
</g>
<g>
</g>
<g>
</g>
<g>
</g>
<g>
</g>
<g>
</g>
<g>
</g>
<g>
</g>
<g>
</g>
<g>
</g>
<g>
</g>
</svg>
