<?xml version="1.0" encoding="iso-8859-1"?>
<!-- Generator: Adobe Illustrator 19.0.0, SVG Export Plug-In . SVG Version: 6.00 Build 0)  -->
<svg version="1.1" id="Layer_1" xmlns="http://www.w3.org/2000/svg" xmlns:xlink="http://www.w3.org/1999/xlink" x="0px" y="0px"
	 viewBox="0 0 512.118 512.118" style="enable-background:new 0 0 512.118 512.118;" xml:space="preserve">
<g transform="translate(-1)">
	<path style="fill:#E6E7E8;" d="M392.802,91.49c-2.436-4.175-5.57-7.892-9.269-10.999c-7.601-6.382-17.196-9.878-27.118-9.878
		H318.81l-61.793,70.621l-61.793-70.621h-37.614c-9.913,0-19.518,3.496-27.11,9.878c-3.699,3.107-6.833,6.824-9.269,10.999
		L2.623,294.595c-3.319,5.685-1.386,12.994,4.326,16.287l25.3,14.61c5.658,3.266,12.888,1.359,16.199-4.273l76.156-129.668
		l-0.018,223.338l60.849,28.398c45.365,21.169,97.774,21.169,143.13,0l60.849-28.398l0.018-223.338l76.703,129.174
		c3.319,5.597,10.522,7.477,16.163,4.22l24.143-13.939c6.365-3.672,8.519-11.829,4.793-18.167L392.802,91.49z"/>
	<g>
		<path style="fill:#BDC3C7;" d="M265.888,194.196c0,4.873-3.955,8.828-8.828,8.828s-8.828-3.955-8.828-8.828
			c0-4.873,3.955-8.828,8.828-8.828S265.888,189.324,265.888,194.196"/>
		<path style="fill:#BDC3C7;" d="M265.888,255.989c0,4.873-3.955,8.828-8.828,8.828s-8.828-3.955-8.828-8.828
			c0-4.873,3.955-8.828,8.828-8.828S265.888,251.117,265.888,255.989"/>
		<path style="fill:#BDC3C7;" d="M265.888,317.783c0,4.873-3.955,8.828-8.828,8.828s-8.828-3.955-8.828-8.828
			s3.955-8.828,8.828-8.828S265.888,312.91,265.888,317.783"/>
		<path style="fill:#BDC3C7;" d="M265.888,379.576c0,4.873-3.955,8.828-8.828,8.828s-8.828-3.955-8.828-8.828
			s3.955-8.828,8.828-8.828S265.888,374.703,265.888,379.576"/>
		<polygon style="fill:#BDC3C7;" points="301.198,308.958 354.164,308.958 354.164,238.337 301.198,238.337 		"/>
	</g>
	<path style="fill:#95A5A5;" d="M195.282,79.438c0-14.627,27.666-26.483,61.793-26.483s61.793,11.855,61.793,26.483l-61.793,70.621
		L195.282,79.438z"/>
	<g>
		<polygon style="fill:#BDC3C7;" points="310.04,158.886 282.03,121.537 318.868,79.438 354.178,79.438 		"/>
		<polygon style="fill:#BDC3C7;" points="204.109,158.886 232.119,121.537 195.282,79.438 159.971,79.438 		"/>
		<path style="fill:#BDC3C7;" d="M466.189,329.549c3.319,5.597,10.531,7.477,16.163,4.228l24.152-13.948
			c6.365-3.672,8.51-11.829,4.785-18.167l-15.625-26.571l-44.862,28.54L466.189,329.549z"/>
		<path style="fill:#BDC3C7;" d="M18.825,275.78L2.688,303.419c-3.328,5.694-1.386,12.994,4.317,16.287l25.309,14.61
			c5.65,3.266,12.888,1.359,16.19-4.273l17.276-29.405L18.825,275.78z"/>
	</g>
</g>
<g>
</g>
<g>
</g>
<g>
</g>
<g>
</g>
<g>
</g>
<g>
</g>
<g>
</g>
<g>
</g>
<g>
</g>
<g>
</g>
<g>
</g>
<g>
</g>
<g>
</g>
<g>
</g>
<g>
</g>
</svg>
