<svg width="256" height="256" viewBox="0 0 256 256" fill="none" xmlns="http://www.w3.org/2000/svg">
<g clip-path="url(#clip0_10_498)">
<path d="M256 185.38L128 256L0 185.38V0H256V185.38Z" fill="#EBEBEB"/>
<path d="M43.8686 183.752C43.1491 183.752 42.4166 183.575 41.7411 183.2L24.3506 173.609C22.9426 172.832 22.0686 171.349 22.0686 169.743V149.881C22.0686 147.444 24.0461 145.467 26.4826 145.467C28.9191 145.467 30.8966 147.444 30.8966 149.881V167.139L46.0051 175.476C48.1416 176.65 48.9181 179.338 47.7351 181.47C46.9321 182.926 45.4271 183.752 43.8686 183.752Z" fill="#1E1E1E"/>
<path d="M26.4831 124.713C24.0466 124.713 22.0691 122.736 22.0691 120.299V75.9275C22.0691 73.491 24.0466 71.5135 26.4831 71.5135C28.9196 71.5135 30.8971 73.491 30.8971 75.9275V120.299C30.8966 122.736 28.9191 124.713 26.4831 124.713Z" fill="#1E1E1E"/>
<path d="M26.4831 50.7585C24.0466 50.7585 22.0691 48.781 22.0691 46.3445V26.483C22.0691 24.0465 24.0466 22.069 26.4831 22.069H46.3451C48.7816 22.069 50.7591 24.0465 50.7591 26.483C50.7591 28.9195 48.7816 30.897 46.3451 30.897H30.8966V46.345C30.8966 48.781 28.9191 50.7585 26.4831 50.7585Z" fill="#1E1E1E"/>
<path d="M114.39 30.8965H73.5627C71.1262 30.8965 69.1487 28.919 69.1487 26.4825C69.1487 24.046 71.1262 22.0685 73.5627 22.0685H114.39C116.827 22.0685 118.804 24.046 118.804 26.4825C118.804 28.919 116.827 30.8965 114.39 30.8965ZM182.438 30.8965H141.61C139.169 30.8965 137.196 28.919 137.196 26.4825C137.196 24.046 139.169 22.0685 141.61 22.0685H182.438C184.874 22.0685 186.852 24.046 186.852 26.4825C186.852 28.919 184.874 30.8965 182.438 30.8965Z" fill="#1E1E1E"/>
<path d="M229.517 50.7585C227.081 50.7585 225.103 48.781 225.103 46.3445V30.8965H209.655C207.219 30.8965 205.241 28.919 205.241 26.4825C205.241 24.046 207.219 22.0685 209.655 22.0685H229.517C231.954 22.0685 233.931 24.046 233.931 26.4825V46.345C233.931 48.781 231.954 50.7585 229.517 50.7585Z" fill="#1E1E1E"/>
<path d="M229.517 124.713C227.081 124.713 225.103 122.736 225.103 120.299V75.9275C225.103 73.491 227.081 71.5135 229.517 71.5135C231.954 71.5135 233.931 73.491 233.931 75.9275V120.299C233.931 122.736 231.954 124.713 229.517 124.713Z" fill="#1E1E1E"/>
<path d="M212.132 183.752C210.574 183.752 209.069 182.926 208.265 181.47C207.082 179.338 207.859 176.65 209.995 175.476L225.104 167.138V149.88C225.104 147.444 227.081 145.466 229.518 145.466C231.954 145.466 233.932 147.444 233.932 149.88V169.742C233.932 171.349 233.058 172.832 231.65 173.609L214.259 183.2C213.584 183.575 212.851 183.752 212.132 183.752Z" fill="#1E1E1E"/>
<path d="M164.461 210.051C162.903 210.051 161.398 209.226 160.595 207.769C159.412 205.637 160.189 202.949 162.325 201.775L190.926 185.992C193.058 184.814 195.746 185.595 196.92 187.726C198.103 189.858 197.326 192.547 195.19 193.721L166.589 209.5C165.913 209.875 165.181 210.051 164.461 210.051Z" fill="#1E1E1E"/>
<path d="M128 230.169C127.263 230.169 126.53 229.983 125.868 229.617L108.478 220.026C106.341 218.848 105.564 216.164 106.747 214.028C107.921 211.896 110.609 211.115 112.741 212.298L128 220.714L143.258 212.297C145.39 211.114 148.083 211.896 149.253 214.027C150.436 216.164 149.659 218.847 147.523 220.026L130.132 229.617C129.47 229.983 128.737 230.169 128 230.169Z" fill="#1E1E1E"/>
<path d="M91.5371 210.051C90.8176 210.051 90.0851 209.875 89.4096 209.5L60.8081 193.72C58.6716 192.546 57.8951 189.858 59.0781 187.726C60.2521 185.594 62.9401 184.813 65.0721 185.992L93.6736 201.775C95.8101 202.949 96.5866 205.637 95.4036 207.769C94.6001 209.226 93.0951 210.051 91.5371 210.051Z" fill="#1E1E1E"/>
<path d="M71.4574 113.455V110.636C73.9877 110.636 75.7528 110.106 76.7528 109.045C77.768 107.985 78.2756 106.212 78.2756 103.727V96.4545C78.2756 94.3636 78.4725 92.553 78.8665 91.0227C79.2756 89.4924 79.9347 88.2273 80.8438 87.2273C81.7528 86.2273 82.965 85.4848 84.4801 85C85.9953 84.5151 87.8665 84.2727 90.0938 84.2727V88.7273C88.3362 88.7273 86.9498 89 85.9347 89.5455C84.9347 90.0909 84.2225 90.9394 83.7983 92.0909C83.3892 93.2273 83.1847 94.6818 83.1847 96.4545V105.545C83.1847 106.727 83.0256 107.803 82.7074 108.773C82.4044 109.742 81.8362 110.576 81.0028 111.273C80.1695 111.97 78.9801 112.508 77.4347 112.886C75.9044 113.265 73.9119 113.455 71.4574 113.455ZM90.0938 142.455C87.8665 142.455 85.9953 142.212 84.4801 141.727C82.965 141.242 81.7528 140.5 80.8438 139.5C79.9347 138.5 79.2756 137.235 78.8665 135.705C78.4725 134.174 78.2756 132.364 78.2756 130.273V123C78.2756 120.515 77.768 118.742 76.7528 117.682C75.7528 116.621 73.9877 116.091 71.4574 116.091V113.273C73.9119 113.273 75.9044 113.462 77.4347 113.841C78.9801 114.22 80.1695 114.758 81.0028 115.455C81.8362 116.152 82.4044 116.985 82.7074 117.955C83.0256 118.924 83.1847 120 83.1847 121.182V130.273C83.1847 132.045 83.3892 133.5 83.7983 134.636C84.2225 135.773 84.9347 136.614 85.9347 137.159C86.9498 137.72 88.3362 138 90.0938 138V142.455ZM71.4574 116.091V110.636H76.821V116.091H71.4574ZM97.1903 146.091V98.0909H102.372V103.636H103.009C103.402 103.03 103.948 102.258 104.645 101.318C105.357 100.364 106.372 99.5152 107.69 98.7727C109.024 98.0152 110.827 97.6364 113.099 97.6364C116.039 97.6364 118.63 98.3712 120.872 99.8409C123.115 101.311 124.865 103.394 126.122 106.091C127.38 108.788 128.009 111.97 128.009 115.636C128.009 119.333 127.38 122.538 126.122 125.25C124.865 127.947 123.122 130.038 120.895 131.523C118.668 132.992 116.099 133.727 113.19 133.727C110.948 133.727 109.152 133.356 107.804 132.614C106.455 131.856 105.418 131 104.69 130.045C103.963 129.076 103.402 128.273 103.009 127.636H102.554V146.091H97.1903ZM102.463 115.545C102.463 118.182 102.849 120.508 103.622 122.523C104.395 124.523 105.524 126.091 107.009 127.227C108.493 128.348 110.312 128.909 112.463 128.909C114.705 128.909 116.577 128.318 118.077 127.136C119.592 125.939 120.728 124.333 121.486 122.318C122.259 120.288 122.645 118.03 122.645 115.545C122.645 113.091 122.266 110.879 121.509 108.909C120.766 106.924 119.637 105.356 118.122 104.205C116.622 103.038 114.736 102.455 112.463 102.455C110.281 102.455 108.448 103.008 106.963 104.114C105.478 105.205 104.357 106.735 103.599 108.705C102.842 110.659 102.463 112.939 102.463 115.545ZM160.918 105.909L156.099 107.273C155.796 106.47 155.349 105.689 154.759 104.932C154.183 104.159 153.395 103.523 152.395 103.023C151.395 102.523 150.115 102.273 148.554 102.273C146.418 102.273 144.637 102.765 143.213 103.75C141.804 104.72 141.099 105.955 141.099 107.455C141.099 108.788 141.584 109.841 142.554 110.614C143.524 111.386 145.039 112.03 147.099 112.545L152.281 113.818C155.402 114.576 157.728 115.735 159.259 117.295C160.789 118.841 161.554 120.833 161.554 123.273C161.554 125.273 160.978 127.061 159.827 128.636C158.69 130.212 157.099 131.455 155.054 132.364C153.009 133.273 150.63 133.727 147.918 133.727C144.357 133.727 141.41 132.955 139.077 131.409C136.743 129.864 135.266 127.606 134.645 124.636L139.736 123.364C140.221 125.242 141.137 126.652 142.486 127.591C143.849 128.53 145.63 129 147.827 129C150.327 129 152.312 128.47 153.781 127.409C155.266 126.333 156.009 125.045 156.009 123.545C156.009 122.333 155.584 121.318 154.736 120.5C153.887 119.667 152.584 119.045 150.827 118.636L145.009 117.273C141.812 116.515 139.463 115.341 137.963 113.75C136.478 112.144 135.736 110.136 135.736 107.727C135.736 105.758 136.289 104.015 137.395 102.5C138.516 100.985 140.039 99.7955 141.963 98.9318C143.902 98.0682 146.099 97.6364 148.554 97.6364C152.009 97.6364 154.721 98.3939 156.69 99.9091C158.675 101.424 160.084 103.424 160.918 105.909ZM185.537 113.273V116.091C183.007 116.091 181.234 116.621 180.219 117.682C179.219 118.742 178.719 120.515 178.719 123V130.273C178.719 132.364 178.514 134.174 178.105 135.705C177.711 137.235 177.06 138.5 176.151 139.5C175.241 140.5 174.029 141.242 172.514 141.727C170.999 142.212 169.128 142.455 166.901 142.455V138C168.658 138 170.037 137.72 171.037 137.159C172.052 136.614 172.764 135.773 173.173 134.636C173.598 133.5 173.81 132.045 173.81 130.273V121.182C173.81 120 173.961 118.924 174.264 117.955C174.582 116.985 175.158 116.152 175.991 115.455C176.825 114.758 178.007 114.22 179.537 113.841C181.082 113.462 183.082 113.273 185.537 113.273ZM166.901 84.2727C169.128 84.2727 170.999 84.5151 172.514 85C174.029 85.4848 175.241 86.2273 176.151 87.2273C177.06 88.2273 177.711 89.4924 178.105 91.0227C178.514 92.553 178.719 94.3636 178.719 96.4545V103.727C178.719 106.212 179.219 107.985 180.219 109.045C181.234 110.106 183.007 110.636 185.537 110.636V113.455C183.082 113.455 181.082 113.265 179.537 112.886C178.007 112.508 176.825 111.97 175.991 111.273C175.158 110.576 174.582 109.742 174.264 108.773C173.961 107.803 173.81 106.727 173.81 105.545V96.4545C173.81 94.6818 173.598 93.2273 173.173 92.0909C172.764 90.9394 172.052 90.0909 171.037 89.5455C170.037 89 168.658 88.7273 166.901 88.7273V84.2727ZM185.537 110.636V116.091H180.173V110.636H185.537Z" fill="#1E1E1E"/>
</g>
<defs>
<clipPath id="clip0_10_498">
<rect width="256" height="256" fill="white"/>
</clipPath>
</defs>
</svg>
